<svg xmlns="http://www.w3.org/2000/svg" viewBox="0 0 400 300" width="400" height="300">
  <!-- Fondo -->
  <rect width="400" height="300" fill="#fafafa"/>
  
  <!-- Cuerpo principal - blanco con franja azul horizontal -->
  <ellipse cx="200" cy="150" rx="120" ry="80" fill="#ffffff" stroke="#e5e7eb" stroke-width="2"/>
  
  <!-- Franja azul horizontal en la parte superior -->
  <rect x="80" y="100" width="240" height="40" fill="#3b82f6" rx="20"/>
  
  <!-- Patrones hexagonales grises en el cuerpo blanco -->
  <polygon points="120,160 130,155 140,160 140,170 130,175 120,170" fill="#d1d5db" opacity="0.6"/>
  <polygon points="180,180 190,175 200,180 200,190 190,195 180,190" fill="#d1d5db" opacity="0.6"/>
  <polygon points="240,160 250,155 260,160 260,170 250,175 240,170" fill="#d1d5db" opacity="0.6"/>
  
  <!-- Ojo grande y amarillo en la parte superior -->
  <circle cx="200" cy="105" r="30" fill="#fbbf24"/>
  <circle cx="200" cy="105" r="15" fill="#000000"/>
  <circle cx="195" cy="100" r="5" fill="#ffffff"/>
  
  <!-- Tubo de humo blanco con tope amarillo -->
  <rect x="280" y="80" width="20" height="50" fill="#ffffff" rx="10"/>
  <circle cx="290" cy="75" r="12" fill="#fbbf24"/>
  <circle cx="295" cy="60" r="10" fill="#ffffff" opacity="0.9"/>
  
  <!-- Boca grande y roja con dientes -->
  <ellipse cx="200" cy="200" rx="80" ry="45" fill="#ef4444"/>
  
  <!-- Dientes superiores -->
  <polygon points="130,185 140,175 150,185" fill="#ffffff"/>
  <polygon points="150,185 160,175 170,185" fill="#ffffff"/>
  <polygon points="170,185 180,175 190,185" fill="#ffffff"/>
  <polygon points="190,185 200,175 210,185" fill="#ffffff"/>
  <polygon points="210,185 220,175 230,185" fill="#ffffff"/>
  <polygon points="230,185 240,175 250,185" fill="#ffffff"/>
  <polygon points="250,185 260,175 270,185" fill="#ffffff"/>
  
  <!-- Dientes inferiores -->
  <polygon points="130,215 140,225 150,215" fill="#ffffff"/>
  <polygon points="150,215 160,225 170,215" fill="#ffffff"/>
  <polygon points="170,215 180,225 190,215" fill="#ffffff"/>
  <polygon points="190,215 200,225 210,215" fill="#ffffff"/>
  <polygon points="210,215 220,225 230,215" fill="#ffffff"/>
  <polygon points="230,215 240,225 250,215" fill="#ffffff"/>
  <polygon points="250,215 260,225 270,215" fill="#ffffff"/>
  
  <!-- Cinta transportadora blanca -->
  <rect x="130" y="195" width="140" height="12" fill="#ffffff" rx="6"/>
  
  <!-- Rodillos naranjas debajo de la cinta -->
  <circle cx="130" cy="201" r="8" fill="#f97316"/>
  <circle cx="150" cy="201" r="8" fill="#f97316"/>
  <circle cx="170" cy="201" r="8" fill="#f97316"/>
  <circle cx="190" cy="201" r="8" fill="#f97316"/>
  <circle cx="210" cy="201" r="8" fill="#f97316"/>
  <circle cx="230" cy="201" r="8" fill="#f97316"/>
  <circle cx="250" cy="201" r="8" fill="#f97316"/>
  <circle cx="270" cy="201" r="8" fill="#f97316"/>
  
  <!-- Formas geométricas en la cinta -->
  <rect x="150" y="197" width="15" height="20" fill="#8b5cf6" rx="2"/>
  <polygon points="240,197 250,207 230,207" fill="#10b981"/>
  
  <!-- Panel de colores con borde azul oscuro -->
  <rect x="310" y="120" width="80" height="80" fill="#ffffff" rx="8" stroke="#1e40af" stroke-width="3"/>
  
  <!-- Cuadrícula de colores 3x3 -->
  <!-- Primera fila -->
  <rect x="315" y="125" width="22" height="22" fill="#ef4444" rx="2"/>
  <rect x="342" y="125" width="22" height="22" fill="#f97316" rx="2"/>
  <rect x="369" y="125" width="22" height="22" fill="#fbbf24" rx="2"/>
  
  <!-- Segunda fila -->
  <rect x="315" y="152" width="22" height="22" fill="#22c55e" rx="2"/>
  <rect x="342" y="152" width="22" height="22" fill="#06b6d4" rx="2"/>
  <rect x="369" y="152" width="22" height="22" fill="#1e40af" rx="2"/>
  
  <!-- Tercera fila -->
  <rect x="315" y="179" width="22" height="22" fill="#8b5cf6" rx="2"/>
  <rect x="369" y="179" width="22" height="22" fill="#ec4899" rx="2"/>
  <rect x="342" y="179" width="22" height="22" fill="#a16207" rx="2"/>
  
  <!-- Estructuras de soporte con rodillos -->
  <rect x="310" y="210" width="35" height="15" fill="#ffffff" rx="7.5"/>
  <rect x="355" y="210" width="35" height="15" fill="#ffffff" rx="7.5"/>
  
  <!-- Rodillos naranjas en las estructuras -->
  <circle cx="315" cy="217.5" r="4" fill="#f97316"/>
  <circle cx="325" cy="217.5" r="4" fill="#f97316"/>
  <circle cx="335" cy="217.5" r="4" fill="#f97316"/>
  <circle cx="360" cy="217.5" r="4" fill="#f97316"/>
  <circle cx="370" cy="217.5" r="4" fill="#f97316"/>
  <circle cx="380" cy="217.5" r="4" fill="#f97316"/>
  
  <!-- Esfera naranja pequeña arriba del panel -->
  <circle cx="350" cy="110" r="8" fill="#f97316"/>
  
  <!-- Logo hexagonal azul en la esquina superior izquierda -->
  <polygon points="50,50 60,45 70,50 70,60 60,65 50,60" fill="#1e40af"/>
</svg>
